<svg width="37" height="37" viewBox="0 0 37 37" fill="none" xmlns="http://www.w3.org/2000/svg">
<circle cx="18.5001" cy="18.4999" r="5.56818" stroke="#F46F7C" stroke-width="2" stroke-linecap="round" stroke-linejoin="round"/>
<path fill-rule="evenodd" clip-rule="evenodd" d="M31.2273 18.5C31.2258 17.5835 31.1255 16.6698 30.9282 15.7748L35.246 12.5055L32.0641 6.99455L27.0639 9.10409C25.71 7.86248 24.1028 6.92942 22.3532 6.36932L21.6819 1H15.3182L14.6469 6.36932C12.8973 6.92942 11.2901 7.86248 9.9362 9.10409L4.93597 6.99455L1.75415 12.5055L6.07188 15.7748C5.67336 17.5697 5.67336 19.4303 6.07188 21.2252L1.75415 24.4945L4.93597 30.0055L9.9362 27.8959C11.2901 29.1375 12.8973 30.0706 14.6469 30.6307L15.3182 36H21.6819L22.3532 30.6307C24.1028 30.0706 25.71 29.1375 27.0639 27.8959L32.0641 30.0055L35.246 24.4945L30.9282 21.2252C31.1255 20.3302 31.2258 19.4165 31.2273 18.5Z" stroke="#F46F7C" stroke-width="2" stroke-linecap="round" stroke-linejoin="round"/>
</svg>
